<?xml version="1.0" encoding="UTF-8"?>
<svg xmlns="http://www.w3.org/2000/svg" width="16" height="16" viewBox="0 0 16 16">
<!-- Balun symbolic icon: a television with rabbit ears showing colour bars. -->
  <path fill="#2e3436" d="M4.47 1.03a.75.75 0 0 0-.53 1.28L7.25 5.6V6H3a2 2 0 0 0-2 2v5a2 2 0 0 0 2 2h10a2 2 0 0 0 2-2V8a2 2 0 0 0-2-2H8.75v-.4l3.31-3.29a.75.75 0 1 0-1.06-1.06L8 4.25 5 1.25a.75.75 0 0 0-.53-.22zM3 7.5h10c.28 0 .5.22.5.5v5a.5.5 0 0 1-.5.5H3a.5.5 0 0 1-.5-.5V8c0-.28.22-.5.5-.5zM4 8.5v3h1.5v-3zm2.5 0v3H8v-3zm2.5 0v3h1.5v-3zm2.5 0v3H13v-3z"/>
</svg>
